<svg id="Layer_1" data-name="Layer 1" xmlns="http://www.w3.org/2000/svg" viewBox="0 0 733.9 164"><title>BL</title><path d="M64.2,37l-33-10a11.9,11.9,0,0,0-2.4-.5c-3.2,0-8.1,5.2-8.1,12,0,4.2,1.5,10,5.6,16.4l9.5,15c3.5-2.4,8.8-7.8,11.3-10.5,3.7,0.2,7.6.3,11.3,0.3,7.1,0,9.1-.8,10.8-2L71,59.4,55.8,72.6c-4.6-.5-11.5-1-14.7-1a30,30,0,0,0-4.1.2L49.4,90.7C57.8,103.7,62,114.2,62,122c0,5.4-3.7,11.8-23.5,31.1l-7.6,7.4c-5.1-5.2-11.2-7.9-16.7-7.9-3.4,0-6.8,1.4-7.4,3.2l-2.4-2.5,15-15.4a17.4,17.4,0,0,1,3-.2c5.4,0,11.8,2.4,18.3,7.4,4.2-3.9,7.4-9.8,7.4-14,0-5.9-4.1-16.2-11-26.7L13.4,68.6C8.8,61.8,5.9,53.4,5.9,47.3c0-7.6,2-11.7,17.2-23.2L39.2,12l30.3,9.3a18.3,18.3,0,0,0,4.2.8c1.4,0,2.5-.5,6.6-2.9l1.9,2.2Z"/><path d="M107.8,49l8.1,3.5c15.9,7.1,23,17.1,23,34.6,0,10.5-17.9,34.5-34.8,47-18.3-7.9-30.8-27-30.8-47.5,0-9,2.2-12.5,16.2-23.5ZM91.8,65.4c-2.4,1.9-3.5,4.7-3.5,10.6,0,20.8,13.2,39,25.7,44.3,6.1-5.9,11.2-15,11.2-25.2,0-20.3-12-27.5-28.7-33.3Z"/><path d="M195.5,86.5c0-19.8-.5-20.4-6.3-24.5l-4.1,3-1.9-2.4L201.6,49a30.2,30.2,0,0,1,9.8,8.8c-0.2,2.9-.3,6.3-0.3,10v40.7c0,4.7.3,6.1,7.8,11.8l3.4-2.5,2.4,2.5-18.1,13.9c-8.3-6.4-10.6-10.3-11-14.7-6.3,4.6-13.2,10.1-18.3,14.7-17.6-5.4-21.5-10.1-21.5-15.7,0-7.3.3-14.5,0.3-31.9,0-19.8-.5-20.4-6.3-24.5l-4.1,3L144,62.7,162.2,49a30.2,30.2,0,0,1,9.8,8.8c-0.2,2.9-.3,6.3-0.3,10v37c0,7.4.8,9.1,17.2,15.5l6.6-4.6V86.5Z"/><path d="M269.2,116.1l2.2,1.9-15,16.2c-16.4-7.1-19.3-10.3-19.3-15.7,0-7.3.3-14.5,0.3-31.9,0-19.8-.5-20.4-6.3-24.5l-4.1,3-1.9-2.4L243.5,49a30.2,30.2,0,0,1,9.8,8.8c-0.2,2.9-.3,6.3-0.3,10v3.5h0.3A69.8,69.8,0,0,1,271.4,49c6.1,3.5,9.5,9.5,9.5,18.4a9.1,9.1,0,0,1-2.4,6.6L267,86.5l-2.2-1.4a11.7,11.7,0,0,0,2.2-6.3,21.3,21.3,0,0,0-6.3-14.5c-6.3,10.5-7.8,17.2-7.8,26.9V108c0,3.4,1.5,5.9,6.4,8.3l6.8,3.2Z"/><path d="M314.7,134.1c-16.2-8.8-17.6-11.2-17.6-16.6,0-9.3.2-37.7,0.3-56.6H293c-4.2,0-7.6.7-9.8,2l-1.4-2c16.1-11.5,22.6-16.9,31.1-27l1.7,0.5c-1.2,2.4-2,12.7-2,18.1h12.7a7.5,7.5,0,0,0,6.8-3.5l2.2,2.2-9,9.8H312.6v44.8c0,6.6.5,7.9,11.7,13.5l3-3.4,2.2,2Z"/><path d="M335.3,136.9l-1.2-2.7,5.7-2.4c0.8-3.9,1.5-11,1.5-48.8V44.2c0-19.8-.5-20.5-6.3-24.5l-4.1,3-1.9-2.4L347.5,6.7a30.2,30.2,0,0,1,9.8,8.8c-0.2,6.3-.3,19.1-0.3,38v24h0.3c3.9-6.9,18.8-22,27.7-28.6,11,13.9,17.4,29.4,17.4,48.5,0,25.4-11.3,37.7-36.2,53.7l-1.9-2.9c15.7-11.5,22.5-23,22.5-47.2,0-13.9-4.2-25.4-13.5-37.5-13.2,13.9-16.4,20.8-16.4,33.1v32.3Z"/><path d="M573.8,12c11.8,4.7,21.3,7.4,29.2,8.1-9.8,18.1-29.7,61-42.6,94.8l1.9,4.6c-4.2,3.4-8.8,8.6-13.9,15.5C543.2,115,531.3,91.7,519,72.1l-17.6,42.8,1.9,4.6c-4.2,3.4-8.8,8.6-13.9,15.5-1-8.1-11.5-34.3-23.8-53.9-21.3-33.8-25.7-49.3-25.7-52.2,0-.8.2-1.2,1.7-2.5L458.8,12l2.2,2.4c-4.2,3.2-5.1,4.2-5.1,5.6,0,5.1,5.9,21.8,18.4,41.7,8.5,13.5,18.6,31.9,24.2,45.8l16.9-41.7c-12.3-22.1-16.6-34-16.6-36.8,0-1,.3-1.7,1.7-2.7L518.2,12l2.2,2.4c-4.2,3.2-5.1,4.4-5.1,5.6,0,4.7,6.4,22,28.1,58.1a183.2,183.2,0,0,1,14.4,29.4c12.8-34.3,22.5-57.5,30.6-73.9-8.3-1.2-18.3-4.2-24-7.3l-3.9,3.9-2.7-2Z"/><path d="M655.7,118.4l1.5,2.9c-6.6,3.9-13.9,8.6-19.4,12.7-3.4-4.4-9.1-16.4-11.3-22.8-14.4,14.9-24.5,23-31.3,23-4.7,0-10.1-4.6-10.1-16.2,0-5.7,5.1-11,33.1-32.4l-5.7-17.9c-1-3.2-3.2-5.7-6.3-5.7s-6.6,2.2-9.6,4.9l-1.9-2.2,11.7-9c6.1-4.7,9.1-6.6,11.8-6.6,4.6,0,8.3,4.9,11.7,17.6,7.1,26.9,14.7,47.2,21.1,54.6Zm-45.8-22c-8.1,6.6-9.3,8.8-9.3,14.9s2,9,6.6,9,12-5.6,17.4-14.2A131.9,131.9,0,0,1,619,89.2Z"/><path d="M671.9,6.7a30.2,30.2,0,0,1,9.8,8.8c-0.2,6.3-.3,19.1-0.3,38v55.6c0,5.6,1.9,8.6,5.7,11.8l3.7-2.9,2,2.2-18.1,13.9c-7.3-5.6-9.3-9.8-9.3-15.7s0.3-14.5.3-31.9V44.2c0-19.8-.5-20.5-6.3-24.5l-4.1,3-1.9-2.4Z"/><path d="M709.1,6.7a30.2,30.2,0,0,1,9.8,8.8c-0.2,6.3-.3,19.1-0.3,38v55.6c0,5.6,1.9,8.6,5.7,11.8l3.7-2.9,2,2.2L712,134.1c-7.3-5.6-9.3-9.8-9.3-15.7s0.3-14.5.3-31.9V44.2c0-19.8-.5-20.5-6.3-24.5l-4.1,3-1.9-2.4Z"/></svg>