<svg id="Layer_1" data-name="Layer 1" xmlns="http://www.w3.org/2000/svg" viewBox="0 0 628.8 164"><title>BL</title><path d="M41.8,27.5l-1.2,1.3q-7.5,8-7.9,17-0.6,11,9.5,22l2.6,2.7,11.3-8,5.7-4.1L63,58.8A41.1,41.1,0,0,1,81.4,71.1a30.9,30.9,0,0,1,7.1,16.6,29.1,29.1,0,0,1-5.3,18.6q-10.3,15.2-33,26.1l-1.5.8-0.4-.2a82.8,82.8,0,0,1-7.7-3.5l-7.2-4a151.3,151.3,0,0,0-15-7.5,36.6,36.6,0,0,0-16.8-2.7l15.4-12.3a37.5,37.5,0,0,1,17.2,2.8q7.6,3.3,15.2,7.6l6.8,3.8a69.7,69.7,0,0,0,7.5,3.5,14.2,14.2,0,0,0,4-4,25.5,25.5,0,0,0,4.6-17.1,29.7,29.7,0,0,0-6.9-16.4,42.1,42.1,0,0,0-17-11.8L36.6,79.7,30.3,84l-0.8-.8a24.4,24.4,0,0,1-3.3-3.4Q16,68.7,16.4,57.5T27.1,36.6l4.3-4.2ZM106,18.6q-15.5,11.6-26.4,12T54.9,25.2q-0.6,2.5-1,4.2-2,8.5,4.1,18.9L59.7,51l6.7-5,7.2-5.4L75.1,41a55.2,55.2,0,0,1,20.2,9.5,33,33,0,0,1,11.3,15,29.2,29.2,0,0,1,.7,17.7,42.3,42.3,0,0,1-7.6,14.9l-15.1,9.6a36.2,36.2,0,0,0,6.6-13,29.9,29.9,0,0,0-.7-17.3A34.4,34.4,0,0,0,79.4,62.6a53.5,53.5,0,0,0-18.6-9l-7.6,5.7-8,6.1-0.8-1.2a26.6,26.6,0,0,1-2.5-3.8q-6.2-10.6-4.2-19.4Q40,30.3,57.9,17.8a80.1,80.1,0,0,1,7-4.5l2.9-1.7,0.5,0.3q16.1,7,26.6,6.5,7-.3,9.1-1.9Z"/><path d="M130,43.9a14.1,14.1,0,0,1,5.5,7.2,39.7,39.7,0,0,1,1,10.3v50a11.1,11.1,0,0,0,2.3,7.2,16.5,16.5,0,0,0,5.8,4.1L128.6,135a15.4,15.4,0,0,1-6-4.2,11.5,11.5,0,0,1-2.4-7.5V76.2q0-9.9-1-13.1a13.2,13.2,0,0,0-5.3-7Zm-15.7-10,14.1-12.5,12.5,0.2-14,12.5Z"/><path d="M187.1,108.9l-11.3,12.9-12,13.5-2.3-3.4q-13-19.9-11.8-37.1,1.3-18.9,22.1-41.6l9.1-9h3.8l24.9,0.3h1.1l-2.3,2.5q-4.4,4.9-5.9,15.4a73.5,73.5,0,0,0-.6,29.8q1.9,11.7,2.9,19.7a59.3,59.3,0,0,1,.1,14.2q-1.4,11.4-13,24.4L181,162.7l-3.4-2.3a81.1,81.1,0,0,0-17.6-9.2,118.8,118.8,0,0,0-20.9-5.5l15-12.3a116.3,116.3,0,0,1,21.1,5.6,80,80,0,0,1,12.3,5.7,28.5,28.5,0,0,0,1.8-7.3,54.1,54.1,0,0,0,0-12.2Q188.7,118.4,187.1,108.9Zm-12.6,7.2L186.1,103a83.1,83.1,0,0,1-.7-25.7q3-13.7,8.4-20.7l-18.7-.3Q166,71,165.2,83.1,164,98.4,174.6,116.1Z"/><path d="M236.8,15.4V57.6l13-12.5,3.8,0.4q11.6,1.2,18.7,8.1a23.2,23.2,0,0,1,6.8,17.1v49.2l9.6-7.5,2.2,1.9L262.9,136V82.4a22.6,22.6,0,0,0-6.8-16.8,29,29,0,0,0-14.7-7.4l-4.8,4.6v60.5l-16.2,11.8V27.1Z"/><path d="M352.6,43.4l-1.5,1.2q-6.8,5.2-12.9,9.1a21.5,21.5,0,0,1-12.3,3.8h-4.7l0.5,47a19,19,0,0,0,3,10.8,20.1,20.1,0,0,0,7.2,7l9.8-7.5,2.4,1.8-17.7,13.4-7.8,5.8-1.3-.7a19.9,19.9,0,0,1-8.7-7.7,20.6,20.6,0,0,1-3.1-11.1l-0.6-58.9L288.1,57h-3.3l36.2-25.7V45l20.3,0.4a12.1,12.1,0,0,0,4.2-.5,10.6,10.6,0,0,0,2.1-1.2l2.7-2.1Z"/><path d="M373.3,22.1v79.1a20.6,20.6,0,0,0,3.3,11.5,24.4,24.4,0,0,0,6,6.5l13.9-14.7L400,107l-26.5,28.4-3.5-1.9a23.9,23.9,0,0,1-9.5-8.8,21.5,21.5,0,0,1-3.4-11.8V33.8Z"/><path d="M414.6,43.9a14.1,14.1,0,0,1,5.5,7.2,39.7,39.7,0,0,1,1,10.3v50a11.1,11.1,0,0,0,2.3,7.2,16.5,16.5,0,0,0,5.8,4.1L413.2,135a15.4,15.4,0,0,1-6-4.2,11.5,11.5,0,0,1-2.4-7.5V76.2q0-9.9-1-13.1a13.2,13.2,0,0,0-5.3-7Zm-15.7-10,14.1-12.5,12.5,0.2-14,12.5Z"/><path d="M447.1,46.5a15.9,15.9,0,0,1,7.1,5.8,17.8,17.8,0,0,1,1.5,3.3l9.1-6.6,6.8-5,1.4,0.4q10.6,3.2,15.6,9.8T494,71l0.2,44.5,9.2-8.7,2.9,2.2L478,135l-0.2-52.3q0-9.8-5.1-16.5T458.5,57l-2.1,1.6a34.2,34.2,0,0,1,.4,4.3L456,124.6l-16.2,11.8,0.8-61.7a19.6,19.6,0,0,0-2.5-10.3,14.6,14.6,0,0,0-6.9-5.6Z"/><path d="M559.9,67.6L527.3,95.9a46.5,46.5,0,0,0,2.6,6q7.6,14.8,24,19.5l10-8.6,2.4,2.1-14.3,12-9.4,7.7-2.3-.5q-18.2-4.3-26.4-20.2a40.3,40.3,0,0,1-4.5-14.5,41.7,41.7,0,0,1,.9-15.2q2.4-9.8,10.8-19.5t22.3-19.4l2.2-1.1,0.3,0.5a77.5,77.5,0,0,0,7.9,11.1,43.5,43.5,0,0,0,10,7.4l0.8,0.5Zm-33.5,25,20.2-17.7a51.2,51.2,0,0,1-9.2-7,40.7,40.7,0,0,1-6.4-8q-2.6,3.8-4.8,12.8a41.6,41.6,0,0,0-.9,14.8Q525.9,90.9,526.4,92.6Z"/><path d="M580.4,105.9l2.6,1.6-2.6,3.7c3.1,3.4,12.1,7.1,20.1,7.1,4.3,0,8.3-.7,10.6-2.1a18.5,18.5,0,0,0,.3-3.4c0-7-4.7-13.2-17.3-17.3-18.5-6.1-22.8-10.9-22.8-20,0-5.5,2.2-9.5,8.6-15.7l16.1-15.7c4.8,1.6,15.9,4.8,22,5.2l1.7-2.7,2.6,1.4L611,64.7c-9.3-1.1-18.7-3.2-25.3-6.1a23.4,23.4,0,0,0-.3,3.9c0,7.8,3.3,14.1,19.7,18.7,12.8,3.6,18.7,10.5,18.7,17.3,0,3.9-1.4,8.2-9.3,19.4s-14.9,16.1-24.4,16.1a30.3,30.3,0,0,1-22-10.3Z"/></svg>